<svg width="124" height="124" viewBox="0 0 124 124" fill="none" xmlns="http://www.w3.org/2000/svg">
<g clip-path="url(#clip0_4032_109125)">
<g clip-path="url(#clip1_4032_109125)">
<g opacity="0.25">
<path d="M3.1682 69.6459C1.21148 67.6904 0 64.986 0 62.0001C0 56.0282 4.84344 51.1873 10.8153 51.1873H12.6207C13.1886 51.1873 13.7466 51.1439 14.291 51.0596L13.0423 51.8544C12.5848 52.085 12.1706 52.3913 11.8209 52.7571C11.0484 53.5606 10.5722 54.6543 10.5722 55.8584V72.8104C7.68304 72.7484 5.07284 71.5518 3.1682 69.6459ZM21.5921 46.412C21.8364 46.05 22.0584 45.673 22.258 45.2812L22.3969 45.8999L21.5934 46.412H21.5921ZM120.832 97.6079C122.789 99.5646 124 102.268 124 105.254C124 111.226 119.157 116.068 113.185 116.068H10.8153C7.82936 116.068 5.12492 114.858 3.1682 112.901C1.21148 110.943 0 108.24 0 105.254C0 99.3638 4.71324 94.5724 10.5722 94.4447V105.303C10.5722 107.777 12.5786 109.782 15.0524 109.782H101.215C103.689 109.782 105.695 107.777 105.695 105.303V94.441H113.186C116.172 94.441 118.876 95.6512 120.833 97.6092L120.832 97.6079ZM120.832 54.3542C122.789 56.311 124 59.0142 124 62.0001C124 67.9732 119.157 72.8141 113.185 72.8141H111.464C110.1 70.4457 108.099 68.4915 105.695 67.1845V55.8584C105.695 53.7504 104.237 51.9796 102.274 51.506L101.775 51.1885H113.186C116.172 51.1885 118.876 52.3988 120.833 54.3555L120.832 54.3542ZM3.1682 26.3922C1.21148 24.4368 0 21.7348 0 18.7489C0 12.777 4.84344 7.93359 10.8153 7.93359H113.186C116.172 7.93359 118.876 9.14507 120.833 11.1018C122.79 13.0585 124.001 15.763 124.001 18.7489C124.001 24.7207 119.158 29.5617 113.186 29.5617H77.7716C76.2637 29.5617 74.8278 29.8704 73.5246 30.4284H32.989C32.1792 30.4284 31.4712 30.9629 31.2492 31.7391L30.0402 35.965L23.059 37.2249C23.0305 37.2298 23.002 37.2348 22.9735 37.2422C22.4527 35.5149 21.5115 33.9724 20.2678 32.7286C18.3098 30.7719 15.6066 29.5617 12.6207 29.5617H10.8153C7.82936 29.5617 5.12492 28.3502 3.1682 26.3935V26.3922Z" fill="#589861"/>
<path d="M11.9132 47.9646C16.1455 47.9646 19.5764 44.5337 19.5764 40.3014C19.5764 36.0691 16.1455 32.6382 11.9132 32.6382C7.68093 32.6382 4.25 36.0691 4.25 40.3014C4.25 44.5337 7.68093 47.9646 11.9132 47.9646Z" fill="#589861"/>
<path d="M113.305 40.3004C113.305 44.5337 109.876 47.9636 105.644 47.9636H96.7088L92.2969 45.155L92.6044 32.6396H105.644C109.876 32.6396 113.305 36.0682 113.305 40.3004Z" fill="#589861"/>
</g>
<g opacity="0.75">
<path opacity="0.75" d="M102.277 51.5058C101.939 51.4215 101.585 51.3781 101.22 51.3781H92.149L92.304 45.1558L102.277 51.5058ZM23.6266 51.3781H15.0569C14.3328 51.3781 13.6508 51.5492 13.0469 51.8542L22.4027 45.8985L23.6278 51.3768L23.6266 51.3781Z" fill="#589861"/>
</g>
<path opacity="0.75" d="M104.407 52.4223L102.185 51.8668C101.875 51.7899 101.55 51.7502 101.217 51.7502H91.766L91.9458 44.4888L104.407 52.4235V52.4223ZM92.5286 51.0062H100.797L92.6563 45.823L92.5274 51.0062H92.5286ZM13.2108 52.1867L12.8438 51.5406L22.646 45.301L24.0881 51.7502H15.0534C14.4037 51.7502 13.7837 51.8965 13.2108 52.1867ZM15.0683 51.0062H23.1593L22.1512 46.4976L15.0683 51.0062Z" fill="#589861"/>
<path opacity="0.5" d="M102.279 51.5071C101.939 51.4228 101.585 51.3794 101.22 51.3794H15.057C14.3316 51.3794 13.6508 51.5493 13.047 51.8556C11.5825 52.5909 10.5781 54.1086 10.5781 55.8595V105.303C10.5781 107.778 12.5832 109.783 15.0582 109.783H101.221C103.696 109.783 105.701 107.778 105.701 105.303V55.8595C105.701 53.7515 104.244 51.9808 102.28 51.5084L102.279 51.5071ZM35.8245 99.9899C35.8245 100.996 35.0074 101.813 34.0017 101.813H18.5712C17.5655 101.813 16.7484 100.996 16.7484 99.9899V84.5593C16.7484 83.5537 17.5655 82.7353 18.5712 82.7353H34.0017C35.0074 82.7353 35.8245 83.5537 35.8245 84.5593V99.9899ZM70.5557 65.8291C69.7621 66.624 68.6647 67.115 67.4545 67.115H47.8699C45.4469 67.115 43.484 65.1508 43.484 62.7266C43.484 61.5139 43.9763 60.419 44.7699 59.6254C45.5635 58.8306 46.6609 58.3395 47.8711 58.3395H67.4557C69.8787 58.3395 71.8416 60.3037 71.8416 62.7254C71.8416 63.9369 71.3493 65.0343 70.5557 65.8279V65.8291ZM86.1958 101.417C86.1958 101.882 85.8201 102.259 85.3563 102.259H76.2572C75.7922 102.259 75.4177 101.882 75.4177 101.417V98.8218C75.4177 98.3568 75.7934 97.9823 76.2572 97.9823H85.3563C85.8213 97.9823 86.1958 98.358 86.1958 98.8218V101.417ZM99.279 101.417C99.279 101.882 98.9033 102.259 98.4396 102.259H89.3417C88.8767 102.259 88.4997 101.882 88.4997 101.417V98.8218C88.4997 98.3568 88.8767 97.9823 89.3417 97.9823H98.4396C98.9046 97.9823 99.279 98.358 99.279 98.8218V101.417Z" fill="#589861"/>
<path d="M101.218 110.153H15.054C12.3793 110.153 10.2031 107.977 10.2031 105.302V55.8582C10.2031 54.0131 11.2274 52.3515 12.8766 51.5232C13.5536 51.1809 14.2864 51.0073 15.054 51.0073H101.218C101.611 51.0073 101.997 51.0544 102.365 51.1462C104.546 51.6732 106.07 53.6101 106.07 55.8582V105.302C106.07 107.977 103.894 110.153 101.219 110.153H101.218ZM15.054 51.7501C14.4042 51.7501 13.7842 51.8964 13.2114 52.1866C11.8139 52.8884 10.9471 54.2946 10.9471 55.857V105.301C10.9471 107.565 12.7898 109.408 15.054 109.408H101.218C103.482 109.408 105.325 107.565 105.325 105.301V55.857C105.325 53.9523 104.035 52.3118 102.188 51.8666H102.185C101.875 51.7885 101.55 51.7488 101.218 51.7488H15.054V51.7501ZM33.9987 102.183H18.5682C17.3579 102.183 16.3734 101.199 16.3734 99.9886V84.558C16.3734 83.3478 17.3579 82.3632 18.5682 82.3632H33.9987C35.209 82.3632 36.1935 83.3478 36.1935 84.558V99.9886C36.1935 101.199 35.209 102.183 33.9987 102.183ZM18.5682 83.1072C17.7684 83.1072 17.1174 83.7582 17.1174 84.558V99.9886C17.1174 100.788 17.7684 101.439 18.5682 101.439H33.9987C34.7985 101.439 35.4495 100.788 35.4495 99.9886V84.558C35.4495 83.7582 34.7985 83.1072 33.9987 83.1072H18.5682ZM67.4514 67.4857H47.8669C45.243 67.4857 43.109 65.3504 43.109 62.7253C43.109 61.4543 43.6038 60.2602 44.5028 59.3612C45.4018 58.4622 46.5959 57.9674 47.8669 57.9674H67.4514C70.0753 57.9674 72.2093 60.1015 72.2093 62.7253C72.2093 63.9976 71.7146 65.1929 70.8156 66.0919C69.9166 66.9909 68.7212 67.4857 67.4514 67.4857ZM47.8669 58.7114C46.7955 58.7114 45.7874 59.1293 45.0285 59.887C44.2696 60.6446 43.853 61.654 43.853 62.7253C43.853 64.94 45.6535 66.7417 47.8669 66.7417H67.4514C68.5228 66.7417 69.5309 66.3238 70.2898 65.5662C71.0487 64.8073 71.4653 63.7992 71.4653 62.7266C71.4653 60.5132 69.6648 58.7127 67.4514 58.7127H47.8669V58.7114Z" fill="#589861"/>
<path d="M71.8407 62.727C71.8407 63.9384 71.3497 65.0358 70.5561 65.8294C69.7625 66.623 68.6651 67.1141 67.4548 67.1141H47.8703C45.4485 67.1141 43.4844 65.1499 43.4844 62.7257C43.4844 61.5142 43.9754 60.4181 44.769 59.6245C45.5626 58.8309 46.66 58.3398 47.8703 58.3398H67.4548C69.8765 58.3398 71.8407 60.304 71.8407 62.7257V62.727Z" fill="#589861"/>
<path d="M67.4518 67.486H47.8673C45.2434 67.486 43.1094 65.3507 43.1094 62.7257C43.1094 61.4547 43.6041 60.2605 44.5031 59.3615C45.4021 58.4625 46.5963 57.9678 47.8673 57.9678H67.4518C70.0757 57.9678 72.2097 60.1018 72.2097 62.7257C72.2097 63.9979 71.7149 65.1933 70.8159 66.0923C69.9169 66.9913 68.7216 67.486 67.4518 67.486ZM47.8673 58.7118C46.7959 58.7118 45.7878 59.1297 45.0289 59.8873C44.27 60.6449 43.8534 61.6543 43.8534 62.7257C43.8534 64.9403 45.6539 66.742 47.8673 66.742H67.4518C68.5232 66.742 69.5313 66.3241 70.2902 65.5665C71.0491 64.8076 71.4657 63.7995 71.4657 62.7269C71.4657 60.5135 69.6652 58.713 67.4518 58.713H47.8673V58.7118Z" fill="#589861"/>
<path opacity="0.25" d="M33.9956 82.7354H18.565C17.5583 82.7354 16.7422 83.5514 16.7422 84.5582V99.9887C16.7422 100.995 17.5583 101.812 18.565 101.812H33.9956C35.0023 101.812 35.8183 100.995 35.8183 99.9887V84.5582C35.8183 83.5514 35.0023 82.7354 33.9956 82.7354Z" fill="#589861"/>
<path d="M34 102.183H18.5694C17.3592 102.183 16.3746 101.199 16.3746 99.9883V84.5577C16.3746 83.3475 17.3592 82.3629 18.5694 82.3629H34C35.2102 82.3629 36.1948 83.3475 36.1948 84.5577V99.9883C36.1948 101.199 35.2102 102.183 34 102.183ZM18.5694 83.1069C17.7696 83.1069 17.1186 83.7579 17.1186 84.5577V99.9883C17.1186 100.788 17.7696 101.439 18.5694 101.439H34C34.7998 101.439 35.4508 100.788 35.4508 99.9883V84.5577C35.4508 83.7579 34.7998 83.1069 34 83.1069H18.5694ZM53.3712 99.9784H39.7647C39.5589 99.9784 39.3927 99.8122 39.3927 99.6064C39.3927 99.4006 39.5589 99.2344 39.7647 99.2344H53.3712C53.5771 99.2344 53.7432 99.4006 53.7432 99.6064C53.7432 99.8122 53.5771 99.9784 53.3712 99.9784ZM53.3712 96.6726H39.7647C39.5589 96.6726 39.3927 96.5064 39.3927 96.3006C39.3927 96.0947 39.5589 95.9286 39.7647 95.9286H53.3712C53.5771 95.9286 53.7432 96.0947 53.7432 96.3006C53.7432 96.5064 53.5771 96.6726 53.3712 96.6726ZM53.3712 93.3655H39.7647C39.5589 93.3655 39.3927 93.1993 39.3927 92.9935C39.3927 92.7876 39.5589 92.6215 39.7647 92.6215H53.3712C53.5771 92.6215 53.7432 92.7876 53.7432 92.9935C53.7432 93.1993 53.5771 93.3655 53.3712 93.3655ZM68.2922 105.674H10.5751C10.3693 105.674 10.2031 105.508 10.2031 105.302C10.2031 105.096 10.3693 104.93 10.5751 104.93H68.2922C68.498 104.93 68.6642 105.096 68.6642 105.302C68.6642 105.508 68.498 105.674 68.2922 105.674ZM91.1826 105.674H75.4135C75.2076 105.674 75.0415 105.508 75.0415 105.302C75.0415 105.096 75.2076 104.93 75.4135 104.93H91.1826C91.3884 104.93 91.5546 105.096 91.5546 105.302C91.5546 105.508 91.3884 105.674 91.1826 105.674ZM97.3044 71.1112H18.9687C18.7628 71.1112 18.5967 70.945 18.5967 70.7392C18.5967 70.5333 18.7628 70.3672 18.9687 70.3672H97.3044C97.5103 70.3672 97.6764 70.5333 97.6764 70.7392C97.6764 70.945 97.5103 71.1112 97.3044 71.1112Z" fill="#589861"/>
<path opacity="0.25" d="M87.1503 51.3782H23.6226L22.3975 45.8999L21.1141 40.1537C20.8115 38.8021 21.6957 37.4703 23.0584 37.2248L30.0396 35.965L46.1993 33.0485C47.2781 32.8526 48.3557 33.4044 48.8293 34.3951L49.9404 36.7226C50.3942 37.6725 51.4048 38.223 52.4477 38.0891L79.6024 34.6258C80.7631 34.4782 81.8642 35.1739 82.2275 36.2861L87.1516 51.3794L87.1503 51.3782Z" fill="#589861"/>
<path d="M87.6617 51.7501H23.3218L20.7488 40.2342C20.5801 39.4803 20.7227 38.7115 21.1493 38.0679C21.5759 37.4244 22.2293 36.9953 22.9895 36.8589L46.1303 32.6814C47.3716 32.4569 48.6178 33.0943 49.1621 34.2339L50.2732 36.5613C50.6576 37.3673 51.5107 37.8323 52.3973 37.7195L79.5533 34.2562C80.8875 34.0863 82.161 34.8911 82.5789 36.1695L87.6629 51.7501H87.6617ZM23.9195 51.0061H86.6374L81.8721 36.4001C81.5646 35.4602 80.6296 34.8687 79.6475 34.994L52.4928 38.4573C51.2875 38.6123 50.1269 37.9799 49.6036 36.8825L48.4925 34.555C48.0933 33.718 47.1769 33.2493 46.2655 33.4142L23.1246 37.5918C22.5666 37.6922 22.0855 38.0084 21.7718 38.4809C21.4581 38.9533 21.3527 39.5187 21.4767 40.073L23.9207 51.0073L23.9195 51.0061Z" fill="#589861"/>
<path opacity="0.5" d="M92.6116 32.2808L92.2941 45.1557L92.1391 51.3781H87.1432L82.2191 36.2848C81.8558 35.1725 80.7547 34.4769 79.5941 34.6244L52.4393 38.0877C51.3965 38.2217 50.3859 37.6711 49.932 36.7213L48.821 34.3938C48.3473 33.403 47.2697 32.8512 46.1909 33.0471L30.0312 35.9636L31.2403 31.7377C31.4622 30.9602 32.1715 30.4258 32.98 30.4258H90.8012C91.8167 30.4258 92.6339 31.2628 92.6091 32.2783L92.6116 32.2808Z" fill="#589861"/>
<path d="M92.5064 51.7504H86.878L81.8697 36.4005C81.5621 35.4606 80.6272 34.8691 79.6451 34.9943L52.4903 38.4576C51.2851 38.6126 50.1244 37.9802 49.6011 36.8828L48.4901 34.5554C48.0908 33.7184 47.1745 33.2496 46.2631 33.4146L29.5156 36.4377L30.8883 31.6376C31.1549 30.7064 32.0179 30.0566 32.9864 30.0566H90.8076C91.4003 30.0566 91.9546 30.2898 92.3687 30.7138C92.7829 31.1379 93.0024 31.6972 92.9875 32.2899L92.6701 45.1648L92.5064 51.7504ZM87.4174 51.0064H91.7797L91.9248 45.1462L92.2423 32.2713C92.2522 31.8807 92.1071 31.5124 91.8343 31.2334C91.5615 30.9544 91.1969 30.8006 90.8063 30.8006H32.9851C32.3465 30.8006 31.7786 31.2297 31.6025 31.8422L30.5585 35.4928L46.1291 32.6817C47.3704 32.4573 48.6166 33.0946 49.1609 34.2342L50.272 36.5617C50.6564 37.3677 51.5095 37.8327 52.3961 37.7198L79.5521 34.2565C80.8863 34.0866 82.1598 34.8914 82.5777 36.1698L87.4187 51.0064H87.4174Z" fill="#589861"/>
<g opacity="0.25">
<path d="M86.1843 98.8219V101.417C86.1843 101.882 85.8086 102.259 85.3449 102.259H76.2457C75.7807 102.259 75.4062 101.882 75.4062 101.417V98.8219C75.4062 98.3569 75.782 97.9824 76.2457 97.9824H85.3449C85.8099 97.9824 86.1843 98.3581 86.1843 98.8219ZM99.2676 98.8219V101.417C99.2676 101.882 98.8919 102.259 98.4281 102.259H89.3302C88.8652 102.259 88.4883 101.882 88.4883 101.417V98.8219C88.4883 98.3569 88.8652 97.9824 89.3302 97.9824H98.4281C98.8931 97.9824 99.2676 98.3581 99.2676 98.8219Z" fill="#589861"/>
</g>
<path d="M85.3497 102.631H76.2505C75.5822 102.631 75.0391 102.087 75.0391 101.417V98.8218C75.0391 98.1535 75.5822 97.6104 76.2505 97.6104H85.3497C86.018 97.6104 86.5611 98.1535 86.5611 98.8218V101.417C86.5611 102.087 86.018 102.631 85.3497 102.631ZM76.2505 98.3544C75.9926 98.3544 75.7831 98.5639 75.7831 98.8218V101.417C75.7831 101.676 75.9926 101.887 76.2505 101.887H85.3497C85.6076 101.887 85.8171 101.676 85.8171 101.417V98.8218C85.8171 98.5639 85.6076 98.3544 85.3497 98.3544H76.2505ZM98.4329 102.631H89.335C88.6654 102.631 88.1211 102.087 88.1211 101.417V98.8218C88.1211 98.1535 88.6654 97.6104 89.335 97.6104H98.4329C99.1013 97.6104 99.6444 98.1535 99.6444 98.8218V101.417C99.6444 102.087 99.1013 102.631 98.4329 102.631ZM89.335 98.3544C89.0759 98.3544 88.8651 98.5639 88.8651 98.8218V101.417C88.8651 101.676 89.0759 101.887 89.335 101.887H98.4329C98.6908 101.887 98.9004 101.676 98.9004 101.417V98.8218C98.9004 98.5639 98.6908 98.3544 98.4329 98.3544H89.335Z" fill="#589861"/>
<path d="M29.2033 27.7316C29.0917 27.7316 28.9826 27.682 28.9094 27.5878L24.8211 22.3103C24.6959 22.1479 24.7244 21.9148 24.8881 21.7883C25.0505 21.663 25.2836 21.6916 25.4101 21.854L29.4984 27.1314C29.6236 27.2939 29.5951 27.527 29.4314 27.6535C29.3632 27.7056 29.2839 27.7316 29.2045 27.7316H29.2033ZM31.8792 26.3936C31.6734 26.3936 31.5072 26.2275 31.5072 26.0216V20.5954C31.5072 20.3896 31.6734 20.2234 31.8792 20.2234C32.085 20.2234 32.2512 20.3896 32.2512 20.5954V26.0216C32.2512 26.2275 32.085 26.3936 31.8792 26.3936ZM83.0974 26.3936C82.9176 26.3936 82.7601 26.2634 82.7304 26.0812L80.4351 11.8856C80.4029 11.6823 80.5405 11.4913 80.7426 11.4591C80.9448 11.4256 81.137 11.5645 81.1692 11.7666L83.4644 25.9621C83.4967 26.1655 83.359 26.3564 83.1569 26.3887C83.1371 26.3924 83.1172 26.3936 83.0974 26.3936ZM86.6674 26.3936C86.6326 26.3936 86.5967 26.3887 86.562 26.3788C86.3648 26.3205 86.2532 26.1134 86.3115 25.9162L88.1417 19.746C88.2 19.5488 88.4071 19.4372 88.6042 19.4955C88.8014 19.5538 88.913 19.7609 88.8547 19.958L87.0245 26.1283C86.9761 26.2895 86.8286 26.3949 86.6674 26.3949V26.3936ZM79.3811 25.724C79.2745 25.724 79.1691 25.6782 79.0947 25.5901L75.1267 20.8322C74.9953 20.6748 75.0163 20.4404 75.1738 20.3077C75.3313 20.1763 75.5669 20.1974 75.6983 20.3548L79.6663 25.1127C79.7978 25.2702 79.7767 25.5046 79.6192 25.6372C79.5498 25.6955 79.4654 25.724 79.3811 25.724ZM89.4921 27.062C89.3681 27.062 89.2478 27.0012 89.1771 26.8884C89.068 26.7148 89.1189 26.4854 89.2924 26.375L94.6443 22.9923C94.8179 22.882 95.0473 22.934 95.1576 23.1076C95.2668 23.2812 95.2159 23.5106 95.0423 23.621L89.6905 27.0037C89.6285 27.0422 89.5603 27.0608 89.4921 27.0608V27.062ZM18.9683 43.0878C18.8617 43.0878 18.7575 43.0431 18.6831 42.9551L13.8645 37.225C13.7318 37.0676 13.7529 36.8332 13.9104 36.7005C14.0678 36.5678 14.3022 36.5889 14.4349 36.7464L19.2535 42.4764C19.3862 42.6339 19.3651 42.8683 19.2076 43.001C19.1382 43.0592 19.0526 43.0878 18.9683 43.0878ZM17.897 44.7928H12.7001C12.4943 44.7928 12.3281 44.6266 12.3281 44.4208C12.3281 44.2149 12.4943 44.0488 12.7001 44.0488H17.897C18.1028 44.0488 18.269 44.2149 18.269 44.4208C18.269 44.6266 18.1028 44.7928 17.897 44.7928Z" fill="#589861"/>
<path d="M113.427 80.181C113.427 86.0264 110.035 91.0806 105.112 93.4775C103.159 94.4323 100.963 94.9655 98.6427 94.9655C90.4785 94.9655 83.8594 88.3464 83.8594 80.1798C83.8594 76.58 85.1453 73.2804 87.2855 70.7161C89.9949 67.4648 94.077 65.3965 98.6427 65.3965C106.809 65.3965 113.428 72.0156 113.428 80.1798L113.427 80.181Z" fill="#34BF87"/>
<path d="M98.6422 95.0285C90.4569 95.0285 83.7969 88.3684 83.7969 80.1807C83.7969 76.71 85.0183 73.3347 87.2379 70.6774C90.0663 67.2822 94.224 65.3354 98.6422 65.3354C106.829 65.3354 113.489 71.9955 113.489 80.1807C113.489 83.0178 112.686 85.7756 111.167 88.1552C109.689 90.4727 107.604 92.3315 105.139 93.533C103.11 94.525 100.925 95.0272 98.6422 95.0272V95.0285ZM98.6422 65.4594C94.26 65.4594 90.1382 67.3901 87.3334 70.7567C85.1336 73.3917 83.9209 76.7385 83.9209 80.1807C83.9209 88.299 90.5251 94.9045 98.6422 94.9045C100.905 94.9045 103.073 94.406 105.084 93.4227C110.192 90.9352 113.365 85.8612 113.365 80.1807C113.365 72.0637 106.76 65.4594 98.6422 65.4594Z" fill="#080808"/>
<path opacity="0.25" d="M113.427 80.181C113.427 86.0264 110.035 91.0806 105.112 93.4775C103.159 94.4323 100.963 94.9655 98.6427 94.9655C90.4785 94.9655 83.8594 88.3464 83.8594 80.1798C83.8594 76.58 85.1453 73.2804 87.2855 70.7161C89.9949 67.4648 94.077 65.3965 98.6427 65.3965C106.809 65.3965 113.428 72.0156 113.428 80.1798L113.427 80.181Z" fill="#589861"/>
<path d="M98.6397 95.3384C90.2833 95.3384 83.4844 88.5395 83.4844 80.1807C83.4844 76.638 84.7318 73.192 86.9973 70.4789C89.8853 67.0131 94.1285 65.0254 98.6397 65.0254C106.997 65.0254 113.796 71.8243 113.796 80.1807C113.796 83.0773 112.977 85.8921 111.427 88.3225C109.917 90.6884 107.788 92.5869 105.271 93.812C103.2 94.8238 100.97 95.3372 98.6397 95.3372V95.3384ZM98.6397 65.7694C94.3505 65.7694 90.3143 67.6591 87.5689 70.9551C85.4151 73.5355 84.2284 76.8116 84.2284 80.1807C84.2284 88.1278 90.6937 94.5944 98.6397 94.5944C100.856 94.5944 102.977 94.1059 104.945 93.1436C109.946 90.7083 113.052 85.7408 113.052 80.1807C113.052 72.2347 106.587 65.7694 98.6397 65.7694Z" fill="#589861"/>
<path d="M105.44 85.576L104.035 86.9809C103.568 87.4484 102.809 87.4484 102.342 86.9809L98.6426 83.282L94.9425 86.9809C94.4762 87.4484 93.7174 87.4484 93.2486 86.9809L91.8437 85.576C91.375 85.1073 91.375 84.3484 91.8437 83.8809L95.5426 80.1832L91.8437 76.4831C91.3762 76.0156 91.375 75.2579 91.8437 74.7892L93.2486 73.3843C93.7161 72.9168 94.475 72.9168 94.9425 73.3843L98.6426 77.0845L102.342 73.3843C102.809 72.9168 103.568 72.9168 104.035 73.3843L105.44 74.7892C105.909 75.2579 105.908 76.0156 105.44 76.4831L101.741 80.1832L105.44 83.8809C105.909 84.3484 105.909 85.1073 105.44 85.576Z" fill="#589861"/>
</g>
</g>
<defs>
<clipPath id="clip0_4032_109125">
<rect width="124" height="124" fill="white"/>
</clipPath>
<clipPath id="clip1_4032_109125">
<rect width="124" height="124" fill="white"/>
</clipPath>
</defs>
</svg>
